<?xml version="1.0" encoding="utf-8"?>
<!DOCTYPE svg PUBLIC "-//W3C//DTD SVG 1.1//EN" "http://www.w3.org/Graphics/SVG/1.1/DTD/svg11.dtd">
<svg xmlns="http://www.w3.org/2000/svg" version="1.1" width="32" height="32">
  <rect x="2" y="0" width="26" height="32" style="fill:white; stroke:white" />
  <rect x="3" y="1" width="24" height="30" style="fill:#333333; stroke:#333333" />
  <rect x="18" y="3" width="8" height="8" style="fill:white; stroke:white" />

  <line x1="4" y1="3" x2="16" y2="3" style="stroke:white; stroke-width:1" />
  <line x1="4" y1="5" x2="16" y2="5" style="stroke:white; stroke-width:1" />
  <line x1="4" y1="7" x2="16" y2="7" style="stroke:white; stroke-width:1" />
  <line x1="4" y1="9" x2="16" y2="9" style="stroke:white; stroke-width:1" />
  <line x1="4" y1="11" x2="16" y2="11" style="stroke:white; stroke-width:1" />


  <line x1="4" y1="13" x2="26" y2="13" style="stroke:white; stroke-width:1" />
  <line x1="4" y1="15" x2="26" y2="15" style="stroke:white; stroke-width:1" />
  <line x1="4" y1="17" x2="26" y2="17" style="stroke:white; stroke-width:1" />
  <line x1="4" y1="19" x2="26" y2="19" style="stroke:white; stroke-width:1" />

  <circle cx="8" cy="23" r="1" stroke="white" fill="white" />
  <line x1="12" y1="23" x2="24" y2="23" style="stroke:white; stroke-width:1" />

  <circle cx="8" cy="27" r="1" stroke="white" fill="white" />
  <line x1="12" y1="27" x2="24" y2="27" style="stroke:white; stroke-width:1" />
</svg>
